<?xml version="1.0" standalone="no"?>
<!DOCTYPE svg PUBLIC "-//W3C//DTD SVG 20010904//EN"
 "http://www.w3.org/TR/2001/REC-SVG-20010904/DTD/svg10.dtd">
<svg version="1.0" xmlns="http://www.w3.org/2000/svg"
 width="2233.000000pt" height="1442.000000pt" viewBox="0 0 2233.000000 1442.000000"
 preserveAspectRatio="xMidYMid meet">

<g transform="translate(0.000000,1442.000000) scale(0.100000,-0.100000)"
fill="#000000" stroke="none">
<path d="M2810 13290 l0 -1120 8350 0 8350 0 0 1120 0 1120 -8350 0 -8350 0 0
-1120z m7156 326 c28 -28 34 -42 34 -76 0 -34 -6 -48 -34 -76 l-34 -34 -2201
0 c-1684 0 -2206 3 -2226 12 -71 32 -71 162 -1 197 14 6 764 10 2224 10 l2204
1 34 -34z"/>
<path d="M15600 11264 c-1269 -45 -2596 -218 -3930 -510 -1519 -334 -2802
-842 -3655 -1449 -272 -193 -587 -481 -749 -685 -218 -274 -364 -570 -427
-870 -30 -140 -33 -394 -6 -517 66 -306 218 -568 576 -993 366 -434 472 -563
577 -702 64 -84 126 -173 139 -198 95 -187 71 -413 -72 -669 -125 -227 -305
-450 -783 -971 -477 -519 -647 -730 -812 -1004 -210 -350 -271 -659 -182 -925
43 -129 124 -249 260 -387 642 -646 2037 -1083 4029 -1263 657 -60 1075 -76
1945 -76 839 0 1356 19 1990 71 1601 131 2999 765 4151 1882 104 101 107 103
115 78 9 -25 10 -24 72 47 52 58 62 77 58 98 -4 20 6 38 51 90 455 520 648
1216 522 1879 -57 298 -170 568 -349 832 -138 205 -243 332 -665 803 -237 265
-386 459 -454 592 -73 145 -67 336 20 595 59 179 125 321 408 883 329 651 427
883 506 1190 50 195 68 327 68 510 0 172 -14 273 -59 423 -34 113 -130 299
-208 402 -84 113 -269 290 -382 367 -380 259 -963 408 -1814 462 -166 11 -783
21 -940 15z m826 -1219 c72 -21 137 -68 178 -128 72 -106 66 292 64 -4403 l-3
-4229 -29 -63 c-37 -79 -114 -153 -188 -179 -51 -17 -154 -18 -2563 -18
l-2510 0 -56 26 c-72 34 -134 96 -168 168 l-26 56 -3 815 -3 815 -88 -245
c-94 -263 -214 -579 -335 -884 -41 -104 -73 -192 -71 -196 2 -4 55 -45 117
-92 87 -65 121 -84 148 -86 63 -3 81 -11 96 -47 8 -19 14 -48 14 -64 l0 -30
-146 -3 -146 -3 -231 92 c-128 50 -239 96 -246 101 -13 7 -9 26 23 115 21 59
42 104 47 101 5 -3 9 -2 9 3 0 4 54 318 120 698 l119 690 -87 90 c-48 49 -134
141 -191 203 -57 62 -105 111 -107 109 -1 -1 -10 -47 -19 -102 -121 -768 -359
-1587 -663 -2286 l-20 -46 -73 14 c-61 11 -74 11 -81 0 -5 -10 -19 -12 -50 -8
l-43 6 1 55 c1 30 16 208 33 395 31 343 60 718 83 1095 7 113 12 396 13 630 0
463 3 429 -68 770 -41 195 -87 464 -122 715 -13 99 -30 213 -36 253 -8 48 -10
134 -5 260 23 665 28 882 35 1537 7 724 8 731 30 800 33 100 63 152 123 217
l53 56 78 -10 c43 -6 80 -8 82 -6 3 2 -11 119 -30 259 -20 140 -35 263 -34
274 1 11 -1 27 -4 35 -8 22 -27 153 -22 158 2 2 18 -3 36 -12 17 -9 36 -13 40
-10 5 3 27 40 47 82 36 73 38 80 30 137 -11 82 -5 103 40 122 55 23 131 12
216 -32 44 -22 100 -41 146 -49 l75 -12 12 -105 c21 -196 35 -422 29 -472 -14
-103 -58 -138 -182 -145 l-72 -4 5 -42 c10 -71 42 -143 98 -214 l54 -69 -70
12 c-57 10 -69 10 -65 -1 3 -7 -4 -14 -16 -16 -19 -3 -16 -7 21 -31 24 -16 40
-23 36 -15 -4 7 16 -13 45 -45 57 -63 287 -270 402 -363 40 -33 74 -64 75 -69
1 -6 -23 -39 -54 -74 l-57 -64 50 -43 c111 -97 237 -151 327 -141 53 7 148 54
321 161 l101 63 3 262 c2 247 1 262 -15 257 -10 -3 -130 -39 -267 -81 -136
-42 -250 -74 -252 -72 -5 4 -64 399 -64 425 0 16 14 20 123 31 124 13 287 40
409 67 l67 15 3 917 3 917 27 51 c52 98 119 154 217 180 36 10 594 13 2527 13
2161 1 2487 -1 2530 -14z m1408 -4765 c145 -99 270 -319 326 -572 14 -61 20
-67 41 -42 7 8 25 22 40 30 16 8 40 34 55 59 14 25 28 45 31 45 3 0 3 -33 0
-72 -7 -104 -33 -175 -82 -223 l-40 -40 9 -138 c7 -100 13 -137 21 -133 7 2
33 7 58 11 l45 7 -29 -96 c-15 -52 -33 -113 -39 -135 -14 -52 -34 -71 -73 -70
-18 0 -25 3 -17 6 48 17 90 97 105 196 6 36 4 47 -6 48 -8 0 -27 2 -44 3 -16
1 -64 3 -105 5 l-75 4 63 7 c34 4 65 9 68 13 13 12 -38 85 -78 111 -25 16 -27
16 -36 -1 -12 -20 -13 -18 -30 56 -7 28 -7 51 -1 62 16 30 10 84 -11 107 -11
12 -47 39 -79 61 -32 22 -61 47 -65 56 -3 9 -6 66 -6 126 0 129 -16 185 -80
278 -23 34 -48 77 -56 96 -28 68 -10 165 32 165 9 0 35 -13 58 -30z m-25
-1301 c8 -22 7 -35 -2 -50 -17 -27 -1 -49 54 -77 82 -41 186 -55 399 -55 208
0 309 14 397 55 79 37 79 73 0 113 l-52 26 50 -6 c262 -35 485 -111 532 -181
15 -24 15 -27 -4 -52 -11 -15 -45 -44 -76 -65 -31 -21 -57 -45 -57 -52 0 -8
-27 -22 -62 -34 -328 -108 -956 -139 -1433 -70 -144 20 -308 58 -370 83 -19 8
-35 14 -35 12 0 -2 9 -29 20 -61 11 -32 20 -62 20 -66 0 -16 -102 35 -143 71
-42 37 -42 38 -45 118 -3 66 -1 85 14 106 63 87 292 161 614 200 171 21 166
21 179 -15z m-8529 -2979 c58 -11 115 -22 127 -25 14 -3 43 -35 74 -83 112
-167 164 -234 214 -271 83 -63 116 -162 80 -241 l-17 -38 -52 14 c-89 26 -209
89 -275 145 -35 30 -121 116 -191 192 l-127 137 26 95 c14 52 28 95 31 95 3 0
52 -9 110 -20z"/>
<path d="M13994 8405 c-131 -28 -264 -103 -301 -170 -47 -83 -22 -167 81 -273
l64 -67 -12 -75 c-7 -42 -27 -106 -46 -145 -55 -116 -43 -232 27 -264 31 -14
173 -15 173 -1 0 6 -8 27 -19 48 -10 20 -28 68 -41 106 -20 61 -22 82 -17 170
4 56 14 127 22 160 9 32 14 64 11 71 -5 13 23 45 39 45 4 0 5 -24 2 -53 l-7
-53 122 -22 c66 -12 124 -19 128 -17 3 2 13 22 20 45 7 23 17 43 21 45 3 3 12
-22 18 -54 l12 -60 65 -21 c58 -20 64 -24 58 -43 -59 -197 -120 -355 -149
-387 -9 -9 -18 -40 -22 -68 l-6 -51 54 -15 c180 -50 334 -55 377 -12 30 30 19
97 -33 203 l-49 98 -1 290 c0 213 -4 300 -14 329 -21 64 -113 151 -206 197
-121 59 -237 73 -371 44z"/>
<path d="M9431 7714 c-27 -60 8 -81 63 -38 37 29 38 44 5 44 -11 0 -28 4 -38
10 -15 7 -20 4 -30 -16z"/>
<path d="M9439 7158 c16 -29 197 -372 401 -763 l373 -709 -7 -263 c-6 -234 -5
-263 8 -263 9 0 16 -9 16 -20 0 -15 7 -20 28 -20 27 0 43 -22 209 -272 269
-408 430 -674 575 -953 l78 -150 0 1438 0 1438 -42 -26 c-87 -54 -266 -135
-343 -156 -106 -28 -249 -30 -325 -5 -70 24 -287 133 -365 185 -43 28 -63 37
-72 29 -21 -17 -347 304 -501 495 -30 37 -56 67 -58 67 -2 0 9 -24 25 -52z"/>
</g>
</svg>
