<?xml version="1.0" standalone="no"?>
<!DOCTYPE svg PUBLIC "-//W3C//DTD SVG 20010904//EN"
 "http://www.w3.org/TR/2001/REC-SVG-20010904/DTD/svg10.dtd">
<svg version="1.0" xmlns="http://www.w3.org/2000/svg"
 width="2233.000000pt" height="1442.000000pt" viewBox="0 0 2233.000000 1442.000000"
 preserveAspectRatio="xMidYMid meet">

<g transform="translate(0.000000,1442.000000) scale(0.100000,-0.100000)"
fill="#000000" stroke="none">
<path d="M0 13180 l0 -1230 11165 0 11165 0 0 1230 0 1230 -11165 0 -11165 0
0 -1230z m7826 384 c85 -41 87 -176 3 -220 -24 -12 -354 -14 -2443 -14 l-2414
0 -31 25 c-52 45 -61 114 -22 174 34 53 -105 50 2474 51 2200 0 2402 -1 2433
-16z"/>
</g>
</svg>
