<?xml version="1.0" standalone="no"?>
<!DOCTYPE svg PUBLIC "-//W3C//DTD SVG 20010904//EN"
 "http://www.w3.org/TR/2001/REC-SVG-20010904/DTD/svg10.dtd">
<svg version="1.0" xmlns="http://www.w3.org/2000/svg"
 width="2233.000000pt" height="1442.000000pt" viewBox="0 0 2233.000000 1442.000000"
 preserveAspectRatio="xMidYMid meet">

<g transform="translate(0.000000,1442.000000) scale(0.100000,-0.100000)"
fill="#000000" stroke="none">
<path d="M2610 13390 l0 -1020 8285 0 8285 0 0 1020 0 1020 -8285 0 -8285 0 0
-1020z m6529 304 c38 -32 49 -80 27 -123 -35 -66 131 -61 -2081 -59 l-2007 3
-29 33 c-45 51 -35 127 22 158 20 11 384 13 2031 14 l2006 0 31 -26z"/>
<path d="M15350 11224 c-239 -21 -396 -48 -580 -100 -911 -258 -1627 -1004
-1854 -1929 -42 -172 -76 -423 -76 -562 0 -28 -4 -54 -8 -57 -15 -9 -52 6 -52
20 0 11 -22 14 -105 14 -83 0 -105 -3 -105 -14 0 -15 -30 -26 -72 -26 -18 0
-28 -5 -28 -15 0 -10 -11 -15 -35 -15 -24 0 -35 -5 -35 -15 0 -8 -14 -17 -35
-21 -20 -3 -35 -12 -35 -20 0 -8 -6 -14 -14 -14 -7 0 -16 -9 -19 -20 -3 -11
-12 -20 -21 -20 -9 0 -16 -7 -16 -15 0 -8 -7 -15 -15 -15 -10 0 -15 -10 -15
-31 0 -22 -5 -32 -20 -36 -15 -4 -20 -14 -20 -39 0 -24 -5 -34 -15 -34 -11 0
-15 -12 -15 -50 0 -38 -4 -50 -15 -50 -12 0 -15 -18 -15 -105 0 -87 3 -105 15
-105 11 0 15 -12 15 -50 0 -38 4 -50 15 -50 10 0 15 -11 15 -35 0 -28 4 -35
20 -35 16 0 20 -7 20 -35 0 -24 5 -35 15 -35 8 0 15 -7 15 -15 0 -8 9 -15 20
-15 13 0 20 -7 20 -20 0 -11 7 -20 15 -20 8 0 15 -7 15 -15 0 -10 11 -15 35
-15 28 0 35 -4 35 -20 0 -16 7 -20 35 -20 24 0 35 -5 35 -15 0 -11 12 -15 50
-15 38 0 50 -4 50 -15 0 -12 18 -15 105 -15 87 0 105 3 105 15 0 12 13 15 55
15 42 0 55 3 55 15 0 10 10 15 29 15 20 0 30 6 34 20 4 14 13 20 34 20 26 0
31 -7 57 -73 76 -191 243 -471 392 -656 92 -114 257 -280 384 -385 350 -292
810 -496 1293 -573 160 -26 613 -26 777 0 172 27 389 82 540 139 176 65 440
200 577 293 l108 75 573 -573 572 -572 0 -2182 c0 -1991 -1 -2183 -16 -2183
-9 0 -18 -9 -21 -20 -3 -11 -12 -20 -19 -20 -8 0 -14 -9 -14 -20 0 -11 -6 -20
-14 -20 -8 0 -16 -7 -20 -15 -3 -8 -12 -15 -21 -15 -8 0 -15 -7 -15 -15 0 -13
-376 -15 -3325 -15 -2949 0 -3325 2 -3325 15 0 8 -9 15 -20 15 -11 0 -20 7
-20 15 0 8 -7 15 -16 15 -9 0 -18 9 -21 20 -3 11 -12 20 -19 20 -8 0 -14 9
-14 20 0 11 -6 20 -14 20 -7 0 -16 10 -20 23 -3 12 -6 1913 -6 4225 0 3728 -2
4202 -15 4202 -10 0 -15 -10 -15 -30 0 -19 -5 -30 -14 -30 -9 0 -17 -15 -21
-40 -4 -25 -12 -40 -21 -40 -11 0 -14 -18 -14 -80 0 -64 -3 -80 -15 -80 -13 0
-15 -454 -15 -4025 0 -3571 2 -4025 15 -4025 13 0 15 -20 15 -120 0 -99 3
-120 15 -120 10 0 16 -16 21 -50 4 -32 11 -50 20 -50 8 0 14 -9 14 -20 0 -11
6 -23 14 -26 8 -3 18 -19 21 -35 4 -16 13 -29 21 -29 8 0 14 -6 14 -14 0 -8
14 -17 30 -21 17 -4 30 -13 30 -21 0 -8 9 -14 20 -14 11 0 20 -6 20 -14 0 -9
15 -17 40 -21 25 -4 40 -12 40 -21 0 -11 18 -14 80 -14 64 0 80 -3 80 -15 0
-13 350 -15 3090 -15 2740 0 3090 2 3090 15 0 12 16 15 85 15 68 0 85 3 85 15
0 8 14 17 35 21 20 3 35 12 35 20 0 8 9 14 20 14 11 0 20 6 20 14 0 8 14 17
30 21 17 4 30 13 30 21 0 8 6 14 14 14 8 0 17 14 21 30 4 17 13 30 21 30 8 0
14 9 14 20 0 10 7 23 16 28 10 5 18 28 21 55 3 28 11 47 18 47 8 0 14 35 19
118 4 64 11 118 17 120 5 2 9 772 9 2063 0 1132 3 2059 7 2059 3 0 58 -51 122
-113 149 -145 181 -162 316 -162 89 0 106 3 150 26 170 91 239 294 154 461
-14 27 -154 177 -385 411 l-364 367 0 1359 c0 830 -4 1361 -9 1363 -5 2 -13
74 -17 161 -5 122 -10 157 -20 157 -10 0 -14 15 -14 50 0 37 -4 50 -15 50 -8
0 -17 14 -21 35 -3 20 -12 35 -20 35 -12 0 -14 -233 -14 -1542 l0 -1543 -325
325 c-179 179 -325 329 -325 333 0 5 26 46 59 90 470 653 620 1492 405 2271
-56 202 -135 398 -232 571 -372 669 -998 1142 -1738 1315 -201 47 -581 79
-754 64z m358 -695 c592 -64 1112 -379 1444 -873 153 -229 250 -470 305 -761
24 -127 29 -455 9 -599 -55 -388 -212 -735 -471 -1033 -521 -602 -1350 -829
-2112 -578 -632 208 -1125 735 -1293 1382 -57 222 -76 523 -46 750 119 903
840 1610 1746 1712 110 12 307 13 418 0z"/>
<path d="M10479 5100 l-4 -4115 -28 -48 c-30 -50 -94 -103 -150 -124 -24 -9
-822 -12 -3287 -12 l-3255 -1 -50 24 c-27 12 -65 38 -83 56 -28 30 -32 31 -32
13 0 -42 13 -83 26 -83 9 0 14 -11 14 -30 0 -20 5 -30 15 -30 8 0 15 -9 15
-20 0 -13 7 -20 20 -20 11 0 20 -6 20 -14 0 -8 13 -17 29 -21 16 -3 32 -13 35
-21 4 -9 21 -14 56 -14 38 0 50 -4 50 -15 0 -13 357 -15 3155 -15 2798 0 3155
2 3155 15 0 12 13 15 55 15 41 0 55 4 55 14 0 8 14 17 30 21 17 4 30 13 30 21
0 8 9 14 20 14 13 0 20 7 20 20 0 11 6 20 14 20 8 0 17 13 21 29 3 16 13 32
21 35 9 4 14 21 14 56 0 38 4 50 15 50 13 0 15 91 15 755 0 664 2 755 15 755
13 0 15 369 15 3265 0 2170 -3 3265 -10 3265 -5 0 -11 28 -11 63 -1 34 -5 91
-9 127 -4 36 -9 -1787 -11 -4050z"/>
<path d="M3535 5695 c0 -1798 1 -2533 2 -1632 2 901 2 2373 0 3270 -1 898 -2
161 -2 -1638z"/>
<path d="M4780 8614 c-197 -42 -364 -203 -415 -400 -19 -75 -19 -203 0 -279
48 -181 193 -330 378 -386 56 -18 86 -20 175 -17 128 5 196 27 294 94 344 234
304 759 -72 942 -124 61 -231 74 -360 46z"/>
<path d="M4809 6680 c-209 -33 -390 -199 -444 -407 -19 -74 -19 -203 0 -278
49 -188 215 -350 405 -395 311 -75 627 139 672 457 53 365 -268 680 -633 623z"/>
<path d="M12580 6650 c0 -18 -7 -20 -55 -20 -42 0 -55 -3 -55 -15 0 -10 -11
-15 -35 -15 -28 0 -35 -4 -35 -20 0 -11 -7 -20 -15 -20 -8 0 -15 -7 -15 -15 0
-10 -11 -15 -35 -15 -28 0 -35 -4 -35 -20 0 -11 -6 -20 -14 -20 -8 0 -17 -13
-21 -30 -4 -16 -13 -30 -21 -30 -8 0 -14 -9 -14 -20 0 -11 -7 -20 -15 -20 -10
0 -15 -10 -15 -31 0 -22 -5 -32 -20 -36 -17 -4 -20 -14 -20 -54 0 -37 -4 -49
-15 -49 -12 0 -15 -18 -15 -99 0 -79 3 -100 15 -105 11 -4 15 -20 15 -55 0
-40 3 -50 20 -54 15 -4 20 -14 20 -36 0 -21 5 -31 15 -31 8 0 15 -9 15 -20 0
-11 6 -20 14 -20 8 0 17 -13 21 -30 4 -16 13 -30 21 -30 8 0 14 -9 14 -20 0
-16 7 -20 35 -20 24 0 35 -5 35 -15 0 -8 7 -15 15 -15 8 0 15 -9 15 -20 0 -16
7 -20 35 -20 24 0 35 -5 35 -15 0 -12 13 -15 55 -15 42 0 55 -3 55 -15 0 -12
18 -15 100 -15 82 0 100 3 100 15 0 11 12 15 50 15 38 0 50 4 50 15 0 10 11
15 35 15 28 0 35 4 35 20 0 13 7 20 20 20 11 0 20 7 20 15 0 10 10 15 30 15
23 0 30 4 30 20 0 13 7 20 20 20 16 0 20 7 20 30 0 20 5 30 15 30 8 0 15 9 15
20 0 13 7 20 20 20 16 0 20 7 20 35 0 24 5 35 15 35 11 0 15 12 15 51 0 42 3
52 20 56 18 5 20 14 20 104 0 92 -1 99 -20 99 -17 0 -20 7 -20 50 0 38 -4 50
-15 50 -10 0 -15 11 -15 35 0 28 -4 35 -20 35 -13 0 -20 7 -20 20 0 11 -7 20
-15 20 -10 0 -15 10 -15 30 0 23 -4 30 -20 30 -13 0 -20 7 -20 20 0 16 -7 20
-30 20 -20 0 -30 5 -30 15 0 8 -9 15 -20 15 -13 0 -20 7 -20 20 0 16 -7 20
-35 20 -24 0 -35 5 -35 15 0 11 -12 15 -50 15 -43 0 -50 3 -50 20 0 19 -7 20
-100 20 -93 0 -100 -1 -100 -20z"/>
<path d="M4824 4740 c-219 -32 -404 -196 -459 -405 -19 -75 -19 -204 0 -278
33 -127 127 -258 235 -327 167 -107 382 -113 565 -17 141 75 253 238 277 404
52 359 -263 676 -618 623z"/>
<path d="M12573 4710 c-4 -17 -14 -20 -54 -20 -37 0 -49 -4 -49 -15 0 -10 -11
-15 -35 -15 -28 0 -35 -4 -35 -20 0 -16 -7 -20 -35 -20 -24 0 -35 -5 -35 -15
0 -8 -7 -15 -15 -15 -8 0 -15 -9 -15 -20 0 -13 -7 -20 -20 -20 -11 0 -20 -7
-20 -15 0 -8 -7 -15 -15 -15 -10 0 -15 -11 -15 -35 0 -28 -4 -35 -20 -35 -16
0 -20 -7 -20 -35 0 -24 -5 -35 -15 -35 -11 0 -15 -12 -15 -50 0 -38 -4 -50
-15 -50 -12 0 -15 -18 -15 -105 0 -87 3 -105 15 -105 11 0 15 -12 15 -50 0
-38 4 -50 15 -50 10 0 15 -11 15 -35 0 -28 4 -35 20 -35 16 0 20 -7 20 -35 0
-24 5 -35 15 -35 8 0 15 -6 15 -14 0 -7 9 -16 20 -19 11 -3 20 -12 20 -21 0
-9 7 -16 15 -16 8 0 15 -6 15 -14 0 -8 15 -17 35 -20 21 -4 35 -13 35 -21 0
-10 11 -15 35 -15 24 0 35 -5 35 -15 0 -11 12 -15 50 -15 43 0 50 -3 50 -20 0
-19 7 -20 104 -20 95 0 104 2 109 20 4 17 14 20 56 20 39 0 51 4 51 15 0 10
10 15 30 15 20 0 30 5 30 15 0 8 14 17 35 21 20 3 35 12 35 20 0 8 7 14 15 14
8 0 15 7 15 16 0 9 9 18 20 21 11 3 20 12 20 19 0 8 6 14 14 14 8 0 17 15 20
35 4 21 13 35 21 35 10 0 15 10 15 30 0 18 6 33 15 36 8 4 15 18 15 33 0 41
11 71 26 71 11 0 14 22 14 105 0 83 -3 105 -14 105 -15 0 -26 30 -26 73 0 17
-5 27 -15 27 -10 0 -15 11 -15 35 0 24 -5 35 -15 35 -8 0 -17 14 -21 35 -3 20
-12 35 -20 35 -8 0 -14 7 -14 15 0 8 -7 15 -16 15 -9 0 -18 9 -21 20 -3 11
-12 20 -19 20 -8 0 -14 7 -14 15 0 10 -10 15 -31 15 -22 0 -32 5 -36 20 -4 14
-14 20 -34 20 -19 0 -29 5 -29 15 0 12 -13 15 -55 15 -48 0 -55 2 -55 20 0 19
-7 20 -101 20 -92 0 -101 -2 -106 -20z"/>
<path d="M4751 2785 c-134 -38 -274 -149 -338 -271 -116 -219 -72 -489 107
-658 222 -209 550 -206 765 9 249 248 208 653 -86 849 -89 59 -158 79 -284 83
-76 2 -127 -2 -164 -12z"/>
<path d="M12570 2765 c0 -11 -12 -15 -50 -15 -38 0 -50 -4 -50 -15 0 -10 -11
-15 -35 -15 -28 0 -35 -4 -35 -20 0 -16 -7 -20 -35 -20 -24 0 -35 -5 -35 -15
0 -8 -7 -15 -15 -15 -8 0 -15 -9 -15 -20 0 -13 -7 -20 -20 -20 -11 0 -20 -7
-20 -15 0 -8 -7 -15 -15 -15 -10 0 -15 -11 -15 -35 0 -28 -4 -35 -20 -35 -16
0 -20 -7 -20 -35 0 -24 -5 -35 -15 -35 -11 0 -15 -12 -15 -50 0 -38 -4 -50
-15 -50 -12 0 -15 -18 -15 -105 0 -87 3 -105 15 -105 12 0 15 -13 15 -55 0
-42 3 -55 15 -55 10 0 15 -10 15 -29 0 -20 6 -30 20 -34 15 -4 20 -14 20 -36
0 -21 5 -31 15 -31 8 0 15 -6 15 -14 0 -7 9 -16 20 -19 11 -3 20 -12 20 -21 0
-9 7 -16 15 -16 8 0 15 -6 15 -14 0 -8 15 -17 35 -20 21 -4 35 -13 35 -21 0
-10 11 -15 35 -15 24 0 35 -5 35 -15 0 -10 10 -15 28 -15 42 0 72 -11 72 -26
0 -11 22 -14 105 -14 83 0 105 3 105 14 0 16 30 26 78 26 22 0 32 5 32 15 0
10 10 15 30 15 19 0 30 5 30 14 0 8 15 17 35 20 21 4 35 13 35 21 0 8 7 15 15
15 8 0 15 7 15 16 0 9 9 18 20 21 11 3 20 12 20 19 0 8 7 14 15 14 8 0 17 14
21 35 3 20 12 35 20 35 9 0 14 11 14 30 0 20 5 30 15 30 10 0 15 10 15 33 0
47 10 77 26 77 11 0 14 22 14 105 0 83 -3 105 -14 105 -15 0 -26 30 -26 73 0
17 -5 27 -15 27 -10 0 -15 11 -15 35 0 24 -5 35 -15 35 -8 0 -17 14 -21 35 -3
20 -12 35 -20 35 -8 0 -14 7 -14 15 0 8 -7 15 -16 15 -9 0 -18 9 -21 20 -3 11
-12 20 -19 20 -8 0 -14 7 -14 15 0 10 -10 15 -31 15 -22 0 -32 5 -36 20 -4 14
-14 20 -34 20 -19 0 -29 5 -29 15 0 12 -13 15 -55 15 -42 0 -55 3 -55 15 0 12
-18 15 -105 15 -87 0 -105 -3 -105 -15z"/>
<path d="M3560 943 c0 -13 5 -23 10 -23 13 0 13 11 0 30 -8 12 -10 11 -10 -7z"/>
</g>
</svg>
